<?xml version="1.0" standalone="no"?>
<!DOCTYPE svg PUBLIC "-//W3C//DTD SVG 20010904//EN"
 "http://www.w3.org/TR/2001/REC-SVG-20010904/DTD/svg10.dtd">
<svg version="1.0" xmlns="http://www.w3.org/2000/svg"
 width="501.000000pt" height="501.000000pt" viewBox="0 0 501.000000 501.000000"
 preserveAspectRatio="xMidYMid meet">

<g transform="translate(0.000000,501.000000) scale(0.100000,-0.100000)"
fill="#000000" stroke="none">
<path d="M7 5003 c-4 -3 -7 -1128 -7 -2500 l0 -2493 2500 0 2500 0 0 2500 0
2500 -2493 0 c-1372 0 -2497 -3 -2500 -7z m4151 -1691 c111 -35 188 -109 207
-199 l7 -33 -79 0 c-75 0 -79 1 -94 28 -45 80 -226 95 -309 26 l-30 -26 0
-167 0 -167 28 -26 c95 -88 322 -47 322 58 0 48 -9 54 -76 54 l-64 0 0 55 0
55 151 0 151 0 -4 -112 c-3 -91 -8 -121 -26 -154 -26 -51 -70 -89 -142 -123
-49 -23 -67 -26 -170 -26 -132 1 -177 15 -251 82 -72 65 -79 91 -79 301 0 197
5 220 55 280 82 97 259 138 403 94z m-3298 -362 l0 -370 -85 0 -85 0 0 370 0
370 85 0 85 0 0 -370z m505 135 l170 -235 3 235 2 235 75 0 75 0 0 -370 0
-370 -78 0 -77 0 -140 195 c-77 107 -145 197 -153 200 -7 2 -21 -4 -32 -15
-18 -18 -20 -34 -20 -200 l0 -180 -70 0 -70 0 0 370 0 370 73 0 72 0 170 -235z
m1795 226 c0 -5 -11 -37 -24 -72 l-24 -64 -193 -3 c-162 -2 -196 -5 -211 -19
-24 -22 -23 -78 2 -103 18 -18 33 -20 163 -20 163 0 203 -9 254 -53 95 -83 98
-232 6 -319 -56 -53 -82 -58 -328 -58 l-225 0 0 70 0 70 215 0 c216 0 216 0
240 25 30 29 32 64 6 96 -18 23 -26 24 -188 29 -144 4 -173 8 -202 25 -82 48
-126 154 -102 244 16 55 82 127 136 146 46 16 475 22 475 6z m370 -361 l0
-370 -85 0 -85 0 0 370 0 370 85 0 85 0 0 -370z m-1083 300 l-22 -60 -102 0
-103 0 0 -305 0 -305 -80 0 -80 0 0 289 c0 347 12 321 -147 321 l-103 0 0 60
0 60 329 0 330 0 -22 -60z m433 -1290 c0 -263 0 -270 -20 -270 -19 0 -20 7
-20 232 l0 231 -23 -21 c-28 -27 -43 -28 -52 -5 -4 13 6 30 39 60 78 74 76 80
76 -227z m297 250 c-5 -19 0 -20 75 -20 77 0 79 -1 76 -22 -3 -23 -4 -23 -193
-23 -183 0 -190 1 -190 20 0 18 8 20 82 23 71 2 83 5 88 22 5 14 15 20 37 20
25 0 29 -3 25 -20z m883 0 c0 -19 7 -20 133 -20 90 0 137 -4 145 -12 8 -8 12
-53 12 -137 0 -102 -3 -128 -17 -143 -14 -16 -35 -18 -209 -18 -237 0 -224 -9
-224 158 0 132 7 152 55 152 25 0 35 5 40 20 4 14 15 20 36 20 22 0 29 -5 29
-20z m-3006 -2 c33 -15 175 -238 152 -238 -2 0 -11 -3 -19 -6 -10 -4 -33 25
-77 96 -40 64 -72 105 -87 111 -28 10 -183 12 -208 2 -10 -3 -47 -51 -82 -107
-36 -56 -66 -102 -68 -104 -5 -6 -35 11 -35 20 0 17 112 191 139 216 22 20 33
22 142 22 68 0 129 -5 143 -12z m1067 1 c26 -14 151 -206 147 -227 -7 -37 -31
-17 -92 77 -36 55 -74 104 -85 110 -25 14 -183 14 -213 0 -13 -5 -50 -53 -81
-104 -32 -52 -63 -98 -69 -101 -5 -4 -16 0 -24 7 -11 12 -4 29 46 109 89 141
87 140 231 140 66 0 129 -5 140 -11z m1204 -134 c0 -19 -8 -20 -179 -23 -105
-1 -184 2 -189 7 -5 5 -7 17 -4 26 6 13 30 15 189 13 175 -3 183 -4 183 -23z
m-2235 -55 c0 -19 -7 -20 -175 -20 -168 0 -175 1 -175 20 0 19 7 20 175 20
168 0 175 -1 175 -20z m1070 0 c0 -20 -5 -20 -177 -18 -160 3 -178 5 -181 21
-3 16 11 17 177 17 175 0 181 -1 181 -20z m1165 -45 c0 -19 -7 -20 -185 -20
-185 0 -185 0 -188 23 l-3 22 188 -2 c180 -3 188 -4 188 -23z m-2214 -34 c22
-18 24 -26 24 -114 0 -141 6 -137 -216 -137 l-178 0 -20 26 c-18 22 -21 41
-21 111 0 76 2 86 25 108 24 25 27 25 193 25 152 0 172 -2 193 -19z m1063 -2
c25 -19 26 -25 26 -115 0 -137 5 -134 -215 -134 -220 0 -215 -3 -215 133 0 50
4 97 8 103 19 28 53 33 208 34 148 0 163 -2 188 -21z m1140 -45 c20 -19 23
-173 4 -192 -17 -17 -339 -17 -356 0 -8 8 -12 45 -12 100 0 72 3 89 18 97 9 6
86 11 174 11 129 0 159 -3 172 -16z m636 -61 c0 -10 -8 -47 -18 -83 -15 -52
-23 -66 -40 -68 -17 -3 -22 2 -22 20 0 19 19 92 35 136 7 19 45 15 45 -5z m80
-43 l0 -60 129 0 c109 0 130 -3 135 -16 3 -9 4 -20 0 -25 -3 -5 -68 -9 -144
-9 -169 0 -170 1 -170 101 0 67 1 69 25 69 24 0 25 -3 25 -60z m146 16 c15
-43 12 -56 -16 -56 -11 0 -22 12 -29 31 -18 51 -14 71 11 67 14 -2 25 -15 34
-42z m176 -15 c27 -83 27 -105 1 -109 -18 -3 -24 5 -37 52 -9 30 -19 69 -23
87 -5 28 -4 30 18 27 19 -2 27 -14 41 -57z" style="fill:#055ab9"/>
<path d="M3962 2138 c-7 -7 -12 -16 -12 -20 0 -4 79 -8 175 -8 143 0 175 3
175 14 0 23 -24 26 -179 26 -101 0 -151 -4 -159 -12z" style="fill:#055ab9"/>
<path d="M3950 2040 c0 -19 7 -20 175 -20 168 0 175 1 175 20 0 19 -7 20 -175
20 -168 0 -175 -1 -175 -20z" style="fill:#055ab9"/>
<path d="M3952 1953 c3 -16 19 -18 173 -18 154 0 170 2 173 18 3 16 -10 17
-173 17 -163 0 -176 -1 -173 -17z" style="fill:#055ab9"/>
<path d="M757 1904 c-4 -4 -7 -43 -7 -86 l0 -78 168 2 167 3 0 80 0 80 -161 3
c-88 1 -163 -1 -167 -4z" style="fill:#055ab9"/>
<path d="M1815 1887 c-4 -13 -5 -50 -3 -82 l3 -60 164 -3 c125 -2 166 1 173
10 9 15 11 119 2 142 -5 14 -30 16 -170 16 -162 0 -164 0 -169 -23z" style="fill:#055ab9"/>
<path d="M2994 1846 c-3 -7 -4 -33 -2 -57 l3 -44 145 0 145 0 3 43 c5 69 -2
72 -155 72 -105 0 -135 -3 -139 -14z" style="fill:#055ab9"/>
</g>
</svg>
