<?xml version="1.0" standalone="no"?>
<!DOCTYPE svg PUBLIC "-//W3C//DTD SVG 20010904//EN"
 "http://www.w3.org/TR/2001/REC-SVG-20010904/DTD/svg10.dtd">
<svg version="1.0" xmlns="http://www.w3.org/2000/svg"
 width="1794.000000pt" height="1792.000000pt" viewBox="0 0 1794.000000 1792.000000"
 preserveAspectRatio="xMidYMid meet">

<g transform="translate(0.000000,1792.000000) scale(0.100000,-0.100000)"
fill="#000000" stroke="none">
<path d="M8545 17910 c-615 -34 -1183 -117 -1740 -256 -1597 -399 -3045 -1224
-4209 -2399 -1707 -1723 -2641 -4054 -2592 -6475 26 -1347 321 -2577 905
-3775 1289 -2646 3819 -4505 6721 -4939 431 -65 450 -66 1348 -66 760 0 836 2
1005 20 1045 117 2070 421 3017 895 1964 983 3514 2675 4325 4719 307 775 490
1526 587 2411 22 199 23 247 23 895 0 746 -3 806 -71 1280 -266 1873 -1125
3619 -2450 4979 -835 858 -1818 1533 -2912 2000 -935 400 -1885 627 -2932 701
-199 15 -830 20 -1025 10z m950 -321 c2154 -126 4173 -1053 5692 -2612 1384
-1421 2232 -3257 2417 -5237 53 -557 45 -1234 -20 -1790 -241 -2075 -1220
-3988 -2764 -5399 -1806 -1652 -4203 -2458 -6645 -2235 -2598 237 -4968 1657
-6420 3849 -223 336 -369 591 -554 965 -743 1501 -1030 3207 -821 4885 274
2198 1384 4208 3105 5621 1694 1391 3819 2082 6010 1953z" style="fill:#940040"/>
<path d="M9503 16989 c-20 -20 -3 -38 52 -54 62 -18 105 -61 105 -105 0 -16
-31 -229 -70 -474 -88 -564 -92 -600 -76 -662 19 -73 41 -108 103 -170 63 -63
189 -129 303 -159 89 -23 273 -31 341 -15 175 40 298 160 345 335 8 28 39 209
70 403 30 194 64 381 74 415 39 126 108 196 214 216 53 10 61 14 53 34 -3 10
-36 18 -99 26 -51 6 -162 23 -246 37 -84 14 -159 23 -167 20 -26 -10 -16 -25
33 -50 97 -49 142 -135 142 -267 0 -61 -95 -701 -121 -818 -28 -124 -110 -229
-217 -279 -49 -23 -70 -26 -152 -26 -161 1 -267 61 -329 186 -26 51 -31 73
-31 132 0 83 145 1025 166 1074 16 38 67 64 123 62 63 -3 71 -1 71 19 0 25 -3
26 -210 56 -96 13 -238 36 -315 50 -164 29 -148 28 -162 14z" style="fill:#940040"/>
<path d="M6805 16709 c-60 -26 -151 -60 -382 -145 -74 -27 -50 -65 27 -44 86
23 178 -18 237 -107 29 -43 289 -710 281 -719 -2 -1 -251 145 -554 326 l-551
329 -189 -70 c-104 -38 -211 -78 -238 -88 -53 -19 -61 -28 -47 -50 7 -11 17
-12 57 -2 61 16 114 7 185 -31 l56 -29 181 -477 c99 -262 185 -504 191 -537
23 -121 -19 -208 -128 -267 -21 -11 -29 -22 -25 -32 3 -9 11 -16 16 -16 5 0
71 24 146 54 76 30 182 70 237 89 138 49 135 47 135 68 0 22 -15 23 -78 9 -96
-22 -196 38 -251 153 -33 66 -352 907 -345 907 3 0 208 -123 457 -273 855
-518 955 -577 972 -577 14 0 16 6 12 28 -3 15 -103 286 -223 602 -205 543
-217 579 -221 655 -6 105 17 153 97 207 96 64 62 87 -55 37z" style="fill:#940040"/>
<path d="M11483 16623 c-25 -9 -12 -32 36 -67 55 -41 83 -82 105 -156 l15 -51
-189 -429 c-222 -502 -239 -537 -288 -592 -64 -71 -133 -91 -227 -66 -35 9
-48 9 -57 0 -19 -19 4 -34 122 -82 58 -23 165 -71 239 -105 74 -35 141 -61
148 -58 25 10 13 30 -37 64 -86 58 -119 155 -89 264 14 52 390 905 399 905 4
0 57 -199 119 -442 63 -244 153 -600 202 -793 49 -192 95 -356 103 -363 10
-11 15 -11 23 0 6 7 64 132 128 278 317 719 381 859 415 910 50 74 116 115
184 114 28 0 70 -4 94 -9 34 -6 42 -5 42 7 0 22 -13 30 -139 82 -63 27 -167
72 -231 102 -64 30 -124 54 -133 54 -33 0 -16 -35 32 -67 87 -57 115 -170 72
-294 -35 -101 -284 -650 -291 -642 -4 4 -78 280 -165 613 -86 333 -162 610
-169 616 -6 7 -67 37 -136 67 -69 30 -168 75 -220 100 -52 24 -101 42 -107 40z" style="fill:#940040"/>
<path d="M4555 15654 c-158 -116 -563 -405 -697 -498 -54 -37 -98 -74 -98 -82
0 -26 29 -26 82 0 63 31 97 33 131 5 24 -18 662 -901 716 -989 11 -19 21 -52
21 -73 0 -31 -8 -46 -45 -86 -47 -50 -57 -81 -27 -81 9 0 75 43 146 96 71 53
297 215 502 360 l373 265 -18 42 c-27 61 -158 351 -193 425 -21 45 -35 62 -46
60 -21 -4 -20 -22 7 -122 38 -142 26 -319 -30 -445 -41 -94 -163 -225 -252
-273 -65 -35 -134 -19 -182 41 -34 43 -327 454 -331 466 -6 16 93 73 152 86
93 21 208 -28 283 -121 32 -40 71 -54 71 -24 0 21 -411 594 -426 594 -27 0
-25 -24 7 -93 28 -60 34 -84 34 -142 0 -59 -5 -79 -29 -122 -25 -46 -105 -123
-127 -123 -4 0 -81 102 -170 228 -90 125 -173 241 -186 258 l-24 32 65 46 c86
61 198 121 265 140 69 20 180 20 256 1 33 -9 107 -38 164 -65 106 -51 136 -60
129 -37 -4 12 -377 327 -387 327 -4 -1 -64 -44 -136 -96z" style="fill:#940040"/>
<path d="M13350 15662 c0 -10 16 -34 36 -53 56 -53 67 -81 51 -127 -19 -56
-705 -1011 -742 -1034 -40 -24 -49 -23 -121 11 -40 19 -66 26 -75 20 -24 -15
1 -39 137 -134 71 -49 189 -134 261 -188 73 -53 138 -100 146 -103 8 -3 19 2
26 10 10 12 3 24 -38 70 -54 59 -63 94 -39 139 26 50 683 965 714 995 43 41
87 43 155 5 39 -22 51 -25 61 -15 21 21 0 41 -154 147 -80 55 -198 139 -262
188 -117 87 -156 104 -156 69z" style="fill:#940040"/>
<path d="M14260 15020 c0 -6 8 -27 19 -48 27 -54 33 -93 22 -144 -6 -25 -146
-347 -311 -716 -165 -370 -300 -681 -300 -692 0 -11 5 -20 11 -20 6 0 301 112
657 249 356 137 675 255 709 261 84 17 141 9 218 -29 65 -32 85 -33 85 -5 0 9
-51 68 -113 132 -61 65 -141 150 -176 190 -35 39 -70 72 -77 72 -25 0 -26 -22
-4 -72 29 -67 24 -139 -11 -187 -50 -69 -108 -98 -490 -246 -205 -80 -376
-144 -380 -143 -4 2 87 203 202 448 214 457 246 510 298 510 11 0 41 -16 66
-36 52 -39 84 -40 64 -2 -6 12 -80 92 -163 177 -83 86 -182 191 -220 234 -62
69 -106 97 -106 67z" style="fill:#940040"/>
<path d="M3122 14478 c-48 -61 -139 -175 -203 -252 -136 -166 -145 -179 -123
-197 12 -10 21 -6 52 23 47 45 72 58 115 58 30 0 65 -24 248 -171 118 -94 216
-175 217 -180 3 -8 -339 -442 -357 -453 -9 -6 -407 316 -433 349 -28 36 -25
84 7 139 30 52 32 76 6 76 -14 0 -58 -49 -139 -152 -66 -84 -160 -202 -211
-263 -50 -60 -91 -115 -91 -122 0 -30 31 -22 85 21 62 51 102 59 145 29 71
-48 930 -746 953 -773 35 -41 34 -69 -5 -141 -24 -46 -29 -62 -19 -72 19 -19
38 -1 151 145 58 74 149 187 203 252 53 64 97 126 97 137 0 27 -32 24 -61 -7
-42 -45 -86 -67 -122 -60 -21 4 -112 70 -275 200 -134 107 -243 198 -243 203
-1 10 352 453 361 453 17 0 493 -395 501 -417 15 -39 11 -65 -20 -124 -30 -55
-29 -88 2 -76 8 3 61 65 117 137 56 72 145 184 199 248 116 138 126 155 107
171 -11 9 -25 2 -66 -33 -53 -45 -86 -58 -123 -48 -26 7 -958 752 -987 789
-28 36 -25 78 10 144 22 42 26 59 18 67 -7 7 -16 12 -20 12 -5 0 -48 -50 -96
-112z" style="fill:#940040"/>
<path d="M6765 14392 c-28 -10 -70 -29 -95 -44 -26 -16 -676 -659 -1566 -1550
-1444 -1446 -1522 -1526 -1550 -1588 l-29 -65 -2 -890 -2 -890 23 62 c13 35
36 80 52 100 15 21 363 374 773 785 410 411 754 762 765 780 12 18 31 62 43
98 l22 65 0 -140 c1 -149 -11 -220 -50 -298 -14 -28 -270 -292 -784 -807 -471
-472 -772 -782 -788 -810 -58 -104 -57 -82 -56 -949 0 -674 2 -790 14 -754 7
23 25 64 40 90 18 31 298 320 790 813 797 800 788 790 820 908 13 45 13 40 14
-93 1 -157 -14 -242 -56 -315 -15 -27 -325 -346 -788 -810 -714 -716 -765
-769 -796 -835 l-34 -70 0 -215 0 -215 34 -70 c30 -61 62 -98 257 -295 l224
-225 539 540 c565 566 573 576 607 695 11 42 12 36 13 -92 1 -157 -9 -219 -51
-303 -26 -51 -102 -132 -494 -525 l-464 -465 1195 -1195 c657 -657 1196 -1192
1199 -1189 3 3 154 272 335 599 204 366 344 608 367 631 20 20 59 50 88 65 49
28 57 29 196 31 134 3 142 2 103 -11 -53 -17 -100 -46 -138 -86 -16 -17 -195
-327 -396 -688 -312 -561 -364 -658 -350 -667 10 -6 248 -10 661 -10 l645 0
121 669 c113 622 124 671 150 709 16 22 49 51 73 64 39 20 58 23 155 22 83 0
105 -3 86 -10 -43 -17 -90 -59 -110 -99 -13 -25 -58 -251 -135 -677 -63 -351
-117 -648 -120 -660 l-5 -23 665 0 c428 0 665 3 665 10 0 23 -232 1288 -241
1318 -15 47 -66 102 -114 123 l-40 19 110 0 c85 0 119 -5 150 -19 43 -19 91
-68 107 -110 5 -14 61 -309 124 -656 63 -346 117 -643 120 -658 l6 -28 648 3
c441 2 652 6 660 14 14 14 -700 1300 -752 1355 -36 37 -97 74 -148 90 -15 4
27 8 102 8 144 1 197 -12 267 -68 52 -42 55 -46 410 -686 171 -307 315 -563
319 -567 4 -4 545 530 1202 1187 l1195 1195 -461 462 c-254 255 -470 477 -482
493 -47 70 -62 144 -62 302 l1 148 20 -58 c11 -32 30 -75 44 -95 13 -21 263
-277 557 -570 l533 -532 227 227 c242 244 266 275 288 393 13 66 13 276 1 352
-23 136 13 96 -821 933 -422 424 -777 786 -789 806 -49 83 -61 142 -60 303 l0
151 18 -57 c10 -31 29 -74 41 -95 13 -21 366 -382 785 -803 420 -421 771 -781
781 -800 9 -19 25 -60 35 -90 18 -54 18 -36 18 726 1 524 -3 800 -10 840 -25
136 3 104 -834 944 -912 916 -829 809 -832 1075 -1 122 1 159 7 132 27 -106
33 -113 825 -907 419 -421 772 -782 785 -803 12 -21 30 -64 40 -95 18 -56 18
-38 19 808 1 941 2 918 -55 1033 -21 42 -308 334 -1527 1555 -826 826 -1524
1518 -1552 1537 -89 61 -148 75 -319 75 -166 0 -182 -5 -211 -60 -13 -25 -15
-132 -15 -768 l0 -739 -22 -33 c-44 -64 -69 -75 -183 -78 l-104 -4 -3 719 -3
718 -33 68 c-24 48 -48 79 -83 107 -95 75 -2 71 -1370 68 l-1224 -3 -50 -27
c-60 -32 -114 -87 -146 -148 l-24 -45 -3 -727 -3 -728 -92 0 c-119 0 -171 23
-204 90 l-23 44 0 734 c0 796 1 774 -55 800 -43 20 -309 15 -370 -6z m2032
-1368 c61 -45 73 -77 73 -190 l0 -104 -631 0 -631 0 7 43 c21 129 118 236 242
266 21 5 235 9 475 8 426 -2 437 -3 465 -23z m-1275 -1234 c12 -16 29 -83 48
-185 20 -110 35 -164 47 -177 28 -28 106 -36 403 -43 468 -10 584 -27 651 -94
46 -46 67 -111 79 -251 48 -551 50 -643 12 -717 -44 -85 -212 -156 -253 -106
-11 13 -14 79 -14 332 0 346 -5 384 -62 451 -59 71 -187 101 -439 101 -242 1
-334 -21 -376 -90 -22 -35 -23 -43 -23 -306 l0 -270 27 -58 c36 -76 109 -151
244 -252 235 -175 492 -422 740 -710 202 -236 235 -287 238 -375 1 -61 -22
-95 -90 -132 l-50 -27 -41 20 c-76 37 -222 204 -555 631 -105 136 -252 253
-411 328 -157 75 -278 89 -401 45 -247 -87 -582 -405 -843 -799 -105 -159
-142 -200 -198 -221 -36 -14 -49 -15 -79 -5 -45 14 -106 71 -106 97 0 31 46
157 80 220 42 80 140 215 262 362 117 142 366 397 448 460 30 24 105 92 166
152 170 166 207 249 225 498 17 237 -1 359 -56 395 -63 42 -392 52 -530 16
-100 -25 -173 -72 -209 -134 -34 -58 -44 -158 -54 -519 -8 -319 0 -299 -132
-295 -81 3 -85 4 -98 30 -31 65 -35 141 -28 558 l6 415 31 63 c21 43 42 71 69
88 76 50 111 55 478 64 333 9 344 10 396 33 29 14 63 38 75 55 23 33 43 112
60 231 6 44 17 85 29 100 24 33 81 50 156 48 50 -2 62 -6 78 -27z m2164 -8
c21 -13 43 -69 53 -133 23 -140 13 -332 -50 -949 -56 -537 -60 -723 -25 -1129
29 -334 33 -541 13 -581 -11 -22 -20 -25 -69 -28 -46 -2 -61 1 -76 16 -88 88
-141 963 -87 1437 35 306 57 648 63 965 8 373 9 380 75 399 40 11 88 13 103 3z
m1733 -17 c183 -27 399 -85 468 -127 26 -15 34 -28 42 -71 13 -65 -1 -570 -17
-609 -24 -58 -46 -63 -267 -63 -237 0 -384 21 -408 58 -8 12 -33 74 -57 137
-82 221 -137 309 -200 325 -36 9 -58 -19 -76 -97 -14 -60 -106 -268 -149 -335
-15 -25 -33 -35 -76 -48 -90 -25 -219 -37 -359 -33 -181 4 -175 -3 -174 216 0
159 17 309 44 405 30 104 125 149 445 212 121 24 234 46 250 49 59 9 432 -4
534 -19z m-1417 -77 c36 -18 40 -75 30 -442 -10 -374 -17 -423 -63 -472 -18
-20 -32 -24 -77 -24 -75 0 -92 16 -92 87 0 29 12 111 26 181 25 123 26 133 18
332 -13 332 -12 345 44 352 34 5 92 -2 114 -14z m-640 -48 c27 -56 40 -163 40
-330 0 -230 -33 -399 -95 -492 -21 -30 -28 -33 -80 -36 -112 -6 -121 20 -82
251 17 107 30 233 36 372 6 116 12 220 15 233 6 30 37 42 99 39 46 -2 51 -5
67 -37z m1727 -701 c39 -14 51 -41 51 -120 0 -47 4 -63 21 -80 21 -21 27 -21
343 -17 401 4 380 11 374 -128 -2 -73 -7 -97 -21 -111 -16 -16 -54 -19 -358
-29 -366 -12 -359 -10 -359 -64 0 -43 20 -98 38 -105 9 -3 116 -35 238 -70
388 -112 412 -131 474 -375 35 -139 51 -277 57 -510 l6 -225 -28 -27 c-28 -28
-120 -68 -155 -68 -31 0 -58 35 -64 82 -2 24 -9 149 -15 278 -18 389 -53 483
-206 551 -118 52 -262 66 -306 30 l-24 -19 -5 -444 c-6 -520 -3 -508 -101
-508 -92 0 -168 43 -187 108 -8 27 -12 146 -13 373 0 319 -8 481 -24 497 -4 4
-34 7 -68 6 -127 -2 -243 -88 -278 -206 -5 -18 -34 -179 -64 -357 -30 -179
-61 -333 -69 -346 -17 -26 -82 -45 -154 -45 -43 0 -50 3 -56 23 -11 40 -6 212
9 349 26 232 128 597 186 663 37 41 133 89 323 160 82 30 160 62 172 70 33 21
48 83 32 131 -12 36 -16 39 -55 42 -35 3 -238 -17 -453 -44 -40 -5 -50 -2 -77
20 -39 33 -75 109 -71 149 6 64 51 76 395 102 110 8 215 20 232 26 27 10 31
16 31 48 0 41 24 130 46 174 14 25 18 27 83 27 37 0 83 -5 100 -11z m-1814
-358 c16 -10 36 -28 42 -42 19 -37 16 -192 -13 -539 -24 -285 -25 -331 -15
-480 15 -241 1 -280 -103 -280 -81 0 -95 21 -108 157 -15 159 -15 931 1 1018
15 89 59 177 92 186 30 8 66 1 104 -20z m645 -141 c32 -34 43 -62 65 -165 18
-78 43 -773 31 -836 -8 -43 -36 -59 -101 -59 -36 0 -48 5 -60 24 -34 51 -55
202 -65 466 -6 140 -16 312 -24 381 -14 133 -12 171 9 189 10 9 66 23 108 29
5 1 22 -13 37 -29z m729 -1734 c77 -40 173 -270 192 -462 24 -235 -15 -404
-167 -725 -161 -340 -175 -431 -128 -799 35 -274 80 -466 144 -620 27 -63 51
-131 55 -152 6 -31 4 -38 -17 -49 -32 -18 -174 -15 -220 4 -46 19 -79 68 -118
174 -95 261 -185 799 -165 993 8 80 54 233 104 348 21 48 59 134 85 191 99
224 143 407 133 559 -7 111 -24 174 -93 335 -63 149 -65 174 -14 199 44 23
169 24 209 4z m514 -2 c83 -14 158 -115 218 -293 103 -303 80 -456 -152 -1012
-55 -133 -107 -272 -115 -308 -26 -125 -14 -331 36 -608 26 -140 55 -237 116
-379 47 -109 56 -156 35 -177 -19 -19 -169 -15 -207 6 -40 21 -102 113 -143
211 -89 213 -152 660 -132 926 11 152 49 265 162 485 47 94 98 202 111 240 35
98 52 223 45 341 -5 109 -20 158 -92 315 -94 204 -85 251 50 257 17 1 47 -1
68 -4z m-3240 -66 c43 -82 37 -94 -88 -174 l-105 -67 30 -18 c17 -11 57 -32
89 -49 72 -36 101 -70 101 -119 0 -48 -30 -76 -130 -126 -57 -29 -71 -40 -60
-47 8 -5 61 -34 118 -65 57 -31 107 -64 112 -73 13 -24 -35 -96 -78 -116 -28
-13 -42 -14 -77 -5 -39 10 -239 96 -310 133 -29 16 -32 15 -110 -27 -111 -60
-261 -125 -290 -125 -27 0 -82 60 -92 99 -8 31 25 60 136 119 44 24 83 47 86
52 3 4 -34 27 -81 51 -124 61 -144 80 -144 136 0 39 5 50 36 80 20 19 70 51
112 72 l76 38 -68 38 c-38 21 -86 55 -108 76 -39 37 -39 38 -24 67 26 51 67
92 90 92 13 0 98 -36 190 -80 l167 -80 126 67 c144 76 231 114 253 110 8 -1
28 -28 43 -59z m3838 38 c55 -23 82 -63 123 -178 67 -192 79 -339 50 -606 -20
-177 -56 -296 -149 -493 -108 -229 -147 -397 -127 -548 26 -197 89 -469 158
-685 25 -76 47 -158 51 -182 5 -40 3 -44 -21 -55 -21 -10 -41 -10 -92 0 -154
28 -177 55 -253 287 -78 239 -121 486 -121 689 1 202 27 314 120 515 124 266
160 405 160 612 0 220 -25 365 -89 518 -40 95 -44 116 -24 136 14 14 30 16 98
11 44 -3 96 -13 116 -21z m-4884 -29 c12 -12 19 -38 21 -86 l4 -68 -31 -11
c-35 -12 -233 -31 -361 -35 l-85 -2 -3 -57 c-4 -82 -1 -84 236 -80 151 2 193
0 196 -10 3 -7 7 -36 10 -65 10 -85 5 -87 -220 -100 -104 -7 -197 -15 -206
-18 -23 -9 -31 -39 -24 -81 10 -49 41 -54 252 -42 212 13 207 15 212 -97 3
-57 1 -76 -9 -79 -35 -10 -592 -38 -638 -31 -93 13 -95 18 -88 224 11 288 43
533 78 591 11 17 31 36 47 42 39 16 208 26 414 24 155 -1 180 -3 195 -19z
m1794 3 c33 -6 63 -20 77 -33 47 -47 68 -190 78 -523 8 -283 14 -270 -126
-285 -52 -6 -207 -12 -345 -12 l-250 -2 -3 66 c-2 52 1 69 14 80 13 11 65 15
211 19 l195 5 24 28 c29 34 31 67 5 98 -19 24 -23 24 -215 27 -222 4 -210 -1
-222 91 -5 41 -3 55 11 71 23 26 43 29 236 39 92 5 176 14 187 20 25 13 36 44
28 76 -10 41 -62 49 -223 36 -203 -16 -240 -15 -253 8 -5 11 -10 46 -10 79 0
92 18 101 215 112 205 11 308 11 366 0z m1099 -180 c19 -19 20 -34 20 -237 1
-423 22 -696 57 -724 23 -20 62 6 83 54 39 87 50 245 42 562 -2 66 -1 127 2
135 11 28 49 43 118 48 88 6 102 -6 118 -96 22 -124 28 -338 14 -472 -27 -259
-67 -385 -140 -450 -18 -15 -70 -42 -116 -59 -121 -45 -151 -62 -168 -96 -19
-38 -20 -387 -1 -452 15 -54 31 -59 161 -44 68 8 105 9 118 2 30 -16 63 -97
69 -170 6 -77 -7 -118 -41 -131 -39 -15 -744 -90 -844 -90 -161 0 -189 27
-199 191 -5 72 -3 93 11 114 16 25 18 25 134 23 102 -1 124 1 168 21 63 27 99
64 112 114 17 60 3 397 -16 420 -19 22 -52 22 -160 -3 -160 -35 -156 -44 -160
325 -4 338 6 484 35 523 25 35 104 75 151 76 61 2 63 -10 56 -316 -8 -308 -5
-328 53 -328 45 0 80 38 88 93 8 63 8 131 0 507 -9 378 -6 404 45 440 56 40
159 51 190 20z m-1243 -780 c248 -22 275 -60 295 -410 9 -160 8 -246 -5 -480
-9 -157 -22 -304 -28 -327 -22 -82 12 -77 -554 -83 -277 -3 -507 -9 -512 -13
-4 -5 -9 -95 -9 -200 -1 -184 -2 -191 -24 -209 -51 -41 -293 -85 -525 -95
-286 -12 -797 33 -960 84 -66 20 -86 41 -134 132 -68 131 -85 224 -56 301 7
19 17 34 23 33 6 -2 42 -25 79 -52 147 -107 371 -203 529 -226 212 -31 513
-36 619 -10 49 13 102 43 124 71 17 21 21 41 21 94 l0 67 -87 6 c-49 4 -221
14 -383 23 -338 18 -472 34 -501 60 -30 27 -27 133 5 171 23 26 29 28 103 28
43 0 173 -6 288 -13 116 -6 292 -12 393 -12 l182 0 0 90 0 90 -252 0 c-346 1
-450 16 -491 72 -39 52 -32 286 10 375 9 19 29 41 45 49 50 26 234 34 818 37
749 3 723 9 728 -166 2 -58 -1 -138 -7 -179 -19 -127 -68 -150 -356 -173 -99
-8 -181 -14 -182 -15 -2 0 -3 -41 -3 -91 l0 -90 333 3 332 3 55 30 c84 46 92
67 102 264 5 91 10 220 11 287 2 116 1 122 -25 162 -54 81 3 76 -873 86 -870
10 -1086 4 -1168 -32 -76 -34 -80 -49 -136 -452 -24 -169 -43 -239 -74 -276
l-23 -27 -74 24 c-40 12 -85 33 -99 45 -25 21 -26 27 -23 106 6 223 67 623
104 690 38 69 106 104 258 130 41 7 312 13 725 17 1066 11 1274 11 1382 1z" style="fill:#940040"/>
<path d="M11346 11494 c-20 -19 -20 -32 0 -134 19 -104 40 -157 67 -172 31
-16 185 -22 234 -9 58 16 68 51 47 170 -12 72 -19 90 -44 113 -39 36 -87 48
-197 48 -70 0 -95 -4 -107 -16z" style="fill:#940040"/>
<path d="M10505 11454 c-46 -9 -76 -20 -87 -34 -36 -44 -51 -207 -22 -248 14
-21 21 -22 82 -16 89 8 131 21 164 52 33 30 44 62 58 162 9 67 9 76 -7 87 -21
16 -98 15 -188 -3z" style="fill:#940040"/>
<path d="M7420 8268 c-32 -14 -55 -29 -55 -38 0 -8 23 -27 50 -43 59 -32 99
-32 170 4 54 27 55 47 3 71 -62 29 -107 31 -168 6z" style="fill:#940040"/>
<path d="M6980 7163 c-45 -8 -60 -31 -60 -90 0 -49 2 -54 28 -64 27 -11 535
-5 843 9 161 8 179 17 179 88 0 41 -2 44 -37 53 -37 11 -899 14 -953 4z" style="fill:#940040"/>
<path d="M15510 13634 c-10 -11 -8 -24 9 -63 27 -63 27 -101 0 -135 -27 -35
-1051 -646 -1093 -653 -43 -7 -86 16 -117 61 -25 37 -44 50 -60 40 -20 -12 -4
-45 105 -223 63 -102 203 -337 311 -521 108 -184 200 -338 203 -341 6 -5 452
150 535 186 18 8 23 30 8 39 -5 4 -38 -1 -73 -9 -83 -19 -257 -19 -333 0 -132
34 -244 108 -331 220 -59 76 -84 129 -84 183 0 34 6 49 33 76 17 19 144 101
281 182 239 142 249 147 263 128 34 -44 56 -109 56 -168 0 -87 -29 -142 -119
-224 -75 -67 -90 -92 -55 -92 18 0 577 326 614 358 46 40 4 50 -77 18 -144
-58 -272 -17 -359 114 -10 13 -17 30 -17 36 0 10 528 334 544 334 7 0 93 -150
117 -205 51 -116 64 -252 33 -356 -19 -64 -72 -171 -121 -246 -28 -41 -34 -56
-24 -66 9 -9 53 30 192 169 l181 181 -173 284 c-156 257 -328 546 -389 656
-26 48 -43 58 -60 37z" style="fill:#940040"/>
<path d="M1952 12878 c-5 -7 -56 -114 -112 -238 -57 -124 -151 -326 -211 -449
l-108 -224 191 -158 c104 -88 196 -159 204 -159 24 0 16 20 -35 84 -188 237
-209 427 -79 706 l43 93 464 -686 c255 -378 470 -692 477 -698 8 -6 19 -9 26
-6 7 2 55 99 107 213 52 115 157 339 233 499 76 159 135 292 130 296 -45 40
-454 329 -466 329 -30 0 -16 -25 45 -85 79 -78 151 -187 180 -272 20 -57 24
-88 24 -188 0 -134 -10 -170 -91 -343 l-44 -95 -61 89 c-507 743 -894 1304
-900 1304 -3 0 -11 -6 -17 -12z" style="fill:#940040"/>
<path d="M16455 11890 c-4 -6 -4 -39 0 -73 7 -75 -6 -105 -55 -128 -58 -27
-1158 -349 -1193 -349 -46 0 -74 24 -105 89 -29 59 -55 73 -60 31 -2 -14 22
-104 52 -200 29 -96 68 -229 86 -295 35 -132 52 -168 76 -158 12 4 14 17 8 73
-8 89 10 123 81 149 88 32 515 155 520 149 14 -14 24 -123 15 -169 -18 -92
-17 -92 -353 -394 -150 -134 -188 -173 -184 -189 4 -22 87 -312 115 -406 11
-35 22 -55 32 -55 12 0 15 16 17 77 3 133 -9 116 240 361 87 86 161 168 176
195 46 85 55 196 25 317 -5 22 -11 49 -14 60 -3 11 18 -24 46 -78 91 -177 175
-281 268 -328 39 -20 62 -24 132 -24 103 0 174 29 240 96 87 90 115 185 107
358 -6 128 -10 142 -102 446 -35 116 -79 264 -97 330 -24 86 -38 121 -50 123
-9 2 -19 -2 -23 -8z m182 -717 c5 -75 3 -88 -21 -137 -30 -62 -78 -104 -158
-141 -130 -59 -270 -70 -353 -27 -82 42 -149 141 -188 278 l-15 50 342 101
341 101 23 -72 c13 -39 26 -108 29 -153z" style="fill:#940040"/>
<path d="M1307 11453 c-3 -5 -20 -78 -37 -163 -17 -85 -42 -199 -55 -252 -31
-120 -31 -130 -4 -126 15 2 27 17 40 52 23 62 43 84 104 112 81 38 135 33 523
-52 191 -41 348 -76 349 -78 2 -2 -258 -131 -576 -287 l-580 -284 -16 -75 c-9
-41 -33 -145 -52 -230 -43 -184 -45 -205 -19 -205 13 0 24 14 36 44 24 63 70
113 132 145 l53 28 390 -87 c215 -47 441 -97 503 -111 135 -30 186 -51 237
-95 52 -46 75 -100 75 -176 0 -55 2 -63 19 -63 16 0 22 11 31 58 12 60 61 285
88 409 12 54 13 76 5 84 -17 17 -31 3 -45 -44 -19 -62 -82 -121 -148 -137 -79
-19 -139 -10 -585 88 -225 50 -427 94 -447 97 -21 4 -38 10 -38 14 0 3 335
168 745 366 553 267 745 364 745 376 0 20 23 15 -681 168 -278 61 -527 118
-555 126 -70 21 -139 67 -171 116 -24 37 -28 53 -28 113 0 58 -3 71 -17 74 -9
2 -18 -1 -21 -5z" style="fill:#940040"/>
<path d="M16470 9846 c-74 -21 -93 -32 -147 -80 -73 -66 -121 -169 -183 -396
-73 -268 -123 -358 -225 -413 -57 -31 -183 -31 -240 0 -108 57 -165 173 -165
334 0 250 157 403 508 494 53 14 100 29 106 35 28 28 -16 30 -305 15 -162 -8
-309 -15 -326 -15 -43 0 -45 -29 -4 -53 53 -31 56 -68 16 -196 -61 -196 -66
-285 -24 -450 47 -185 187 -335 359 -388 33 -10 90 -16 145 -17 122 0 202 27
277 94 105 93 144 175 218 460 66 254 100 323 183 367 80 42 216 6 269 -72 42
-61 62 -170 49 -268 -25 -183 -142 -302 -411 -418 -83 -36 -112 -66 -60 -62
35 3 459 62 493 69 36 7 35 34 -3 56 -38 22 -39 54 -4 163 61 192 56 346 -16
492 -46 93 -118 171 -190 208 -105 53 -224 68 -320 41z" style="fill:#940040"/>
<path d="M1864 9259 c-10 -16 3 -23 111 -60 207 -70 361 -215 418 -394 9 -27
21 -83 27 -124 20 -137 -17 -221 -103 -236 -47 -8 -591 -32 -601 -27 -5 3 -6
37 -4 76 10 150 96 238 263 267 64 11 89 29 69 49 -9 9 -627 -14 -701 -26 -31
-5 -44 -26 -24 -38 5 -3 41 -10 80 -16 88 -12 136 -36 185 -90 47 -52 65 -93
73 -170 6 -58 5 -60 -18 -60 -13 0 -150 -7 -304 -15 -154 -8 -290 -15 -302
-15 -23 0 -23 2 -23 128 0 71 5 155 11 187 13 69 54 164 95 217 40 51 142 131
230 179 41 23 77 45 80 51 21 33 -29 24 -250 -46 -131 -41 -239 -76 -241 -78
-2 -2 5 -153 16 -337 10 -183 23 -439 27 -567 6 -150 13 -239 20 -246 20 -20
39 8 45 66 6 64 22 91 62 111 42 19 1216 79 1269 64 45 -12 63 -39 77 -110 11
-57 32 -80 52 -60 7 7 6 69 -1 183 -7 95 -19 328 -27 518 -24 558 -23 549 -48
555 -50 11 -499 75 -526 75 -16 0 -33 -5 -37 -11z" style="fill:#940040"/>
<path d="M15492 8421 c-8 -5 -22 -83 -37 -207 -14 -109 -34 -258 -45 -331 -11
-72 -17 -139 -14 -148 13 -33 38 -10 60 55 27 78 51 100 110 100 51 0 1153
-147 1205 -160 56 -15 72 -40 78 -123 5 -64 8 -72 28 -75 25 -4 27 4 43 153 6
55 25 196 42 313 31 216 30 243 -5 229 -8 -3 -18 -21 -22 -39 -18 -81 -59
-127 -114 -128 -32 0 -1123 144 -1186 156 -77 16 -105 53 -105 138 0 55 -15
81 -38 67z" style="fill:#940040"/>
<path d="M2518 7624 c-4 -3 -4 -43 -1 -88 6 -82 6 -82 -25 -108 -36 -30 -1153
-408 -1206 -408 -43 0 -73 25 -106 86 -26 49 -53 67 -63 41 -6 -17 199 -636
218 -656 27 -27 36 -2 29 80 -10 120 -19 113 322 229 130 44 241 77 244 73 8
-9 191 -545 188 -548 -19 -12 -520 -175 -538 -175 -42 0 -84 33 -109 88 -23
50 -54 69 -63 40 -2 -6 44 -156 103 -332 93 -279 110 -321 129 -324 21 -3 21
-1 15 80 -6 89 2 109 51 136 43 23 1158 392 1184 392 38 0 76 -33 105 -91 25
-48 50 -63 61 -34 3 8 -21 90 -54 182 -32 92 -80 235 -106 316 -45 143 -63
174 -87 150 -7 -7 -7 -29 0 -68 13 -72 -3 -116 -51 -141 -18 -9 -158 -59 -311
-110 -190 -63 -279 -89 -283 -81 -2 7 -44 132 -93 279 l-89 267 306 102 c307
102 307 102 344 86 28 -12 43 -28 64 -69 31 -62 44 -73 63 -53 12 12 4 43 -57
217 -39 112 -88 257 -110 323 -36 111 -54 140 -74 119z" style="fill:#940040"/>
<path d="M15266 7198 c-8 -18 -35 -100 -62 -183 -26 -82 -73 -223 -106 -312
-32 -90 -58 -170 -58 -178 0 -9 9 -15 23 -15 17 1 28 13 49 59 14 33 37 66 50
74 59 39 59 39 707 -178 338 -113 617 -207 619 -210 8 -8 -83 -106 -140 -151
-107 -84 -203 -124 -430 -178 -31 -7 -37 -32 -10 -40 23 -8 486 -76 513 -76
20 0 21 4 15 43 -5 37 15 105 160 537 145 432 170 498 196 522 17 14 28 32 26
38 -4 12 -141 91 -373 215 -132 71 -150 63 -64 -31 120 -133 168 -215 199
-347 21 -88 27 -217 10 -217 -13 0 -1150 381 -1200 402 -20 9 -49 30 -64 49
-26 31 -28 38 -22 94 3 33 7 71 9 85 4 40 -30 39 -47 -2z" style="fill:#940040"/>
<path d="M14688 5793 c-8 -10 -46 -70 -83 -133 -38 -63 -113 -184 -167 -267
-54 -84 -98 -162 -98 -173 0 -34 30 -23 79 30 75 80 81 79 361 -94 128 -79
243 -152 254 -164 28 -27 291 -554 323 -645 15 -45 26 -104 30 -157 2 -47 7
-91 9 -99 7 -22 27 2 90 107 32 53 84 137 116 186 32 48 58 94 58 102 0 25
-16 23 -61 -7 -57 -38 -101 -38 -160 -1 -78 50 -141 133 -248 329 -56 102
-101 186 -99 187 9 6 571 -35 616 -45 62 -12 112 -50 112 -85 0 -13 -5 -44
-12 -69 -7 -24 -9 -48 -5 -52 13 -12 43 28 139 187 52 85 129 208 171 272 42
65 77 124 77 133 0 24 -34 18 -61 -11 -28 -30 -80 -59 -126 -68 -17 -4 -211 3
-429 15 l-398 22 -215 133 c-119 74 -228 148 -243 164 -33 36 -35 65 -7 130
21 49 22 81 3 87 -6 2 -17 -4 -26 -14z" style="fill:#940040"/>
<path d="M2983 5615 c-130 -35 -262 -138 -309 -239 -33 -72 -46 -179 -34 -268
13 -87 29 -151 82 -323 48 -159 61 -290 33 -344 -35 -69 -119 -121 -195 -121
-154 0 -306 200 -302 396 2 114 64 257 173 399 46 61 61 95 40 95 -6 0 -47
-30 -93 -67 -297 -241 -328 -268 -328 -285 0 -14 8 -18 40 -18 51 0 63 -18 90
-133 51 -221 163 -376 325 -454 173 -82 371 -52 501 76 88 86 116 174 103 321
-5 47 -20 128 -34 180 -82 304 -86 323 -83 405 4 96 31 154 96 209 119 98 269
81 392 -44 149 -151 179 -335 85 -520 -43 -85 -77 -130 -180 -239 -88 -93
-105 -121 -72 -121 6 0 132 80 279 178 174 115 267 182 265 192 -1 10 -16 16
-44 18 -64 5 -85 37 -118 178 -39 166 -86 255 -195 365 -92 93 -163 135 -275
164 -73 18 -173 18 -242 0z" style="fill:#940040"/>
<path d="M4933 2951 c-89 -22 -151 -93 -160 -184 -16 -155 141 -271 285 -211
85 35 143 136 127 222 -21 118 -141 200 -252 173z" style="fill:#940040"/>
<path d="M12913 2951 c-89 -22 -151 -93 -160 -184 -20 -190 211 -302 350 -169
44 42 60 81 61 148 1 51 -4 68 -29 109 -45 74 -142 115 -222 96z" style="fill:#940040"/>
<path d="M6305 2800 c-13 -21 13 -34 178 -90 141 -48 162 -58 165 -78 4 -24
-317 -1000 -350 -1065 -35 -69 -98 -82 -239 -45 -88 22 -119 20 -119 -7 0 -21
2 -22 488 -181 332 -108 425 -135 434 -126 22 22 -3 43 -97 83 -114 49 -155
89 -155 153 0 31 63 231 211 671 180 534 209 629 197 641 -11 12 -27 11 -103
-2 -122 -22 -293 -14 -440 21 -163 38 -162 38 -170 25z" style="fill:#940040"/>
<path d="M10980 2776 c-118 -35 -193 -83 -265 -167 -69 -81 -122 -208 -113
-270 6 -44 31 -25 59 45 34 85 82 135 163 173 52 24 74 28 151 28 69 0 99 -5
129 -19 79 -40 136 -159 136 -286 0 -113 -54 -184 -170 -226 -86 -31 -70 -68
18 -43 121 35 240 7 331 -77 149 -138 186 -385 78 -525 -36 -47 -129 -104
-185 -112 -95 -15 -173 39 -217 152 -54 136 -99 177 -187 169 -165 -16 -193
-226 -45 -325 134 -90 406 -80 605 22 213 108 342 301 342 512 0 126 -55 253
-144 329 -43 37 -187 114 -213 114 -17 0 -17 -1 18 95 53 148 -30 320 -189
393 -46 21 -74 26 -157 28 -63 2 -116 -1 -145 -10z" style="fill:#940040"/>
<path d="M7919 2515 c-223 -55 -359 -222 -359 -445 0 -127 33 -210 119 -303
127 -137 388 -197 573 -133 39 14 74 23 77 21 8 -9 -53 -139 -102 -214 -102
-157 -264 -287 -457 -365 -47 -19 -86 -40 -88 -46 -11 -32 238 18 393 79 254
102 458 267 548 446 57 115 72 187 71 355 0 141 -3 162 -26 227 -36 101 -72
158 -144 231 -72 72 -170 124 -279 147 -86 18 -251 18 -326 0z m313 -43 c87
-31 142 -104 167 -220 26 -122 5 -407 -37 -492 -13 -27 -33 -43 -86 -70 -62
-31 -79 -35 -145 -34 -112 0 -181 42 -229 139 -57 116 -53 344 9 511 58 155
179 218 321 166z" style="fill:#940040"/>
<path d="M9600 2505 c-135 -24 -230 -68 -317 -149 -84 -77 -125 -161 -131
-265 -8 -134 39 -232 154 -326 l50 -41 -61 -57 c-42 -37 -75 -80 -101 -129
-38 -72 -39 -75 -39 -178 0 -101 1 -108 34 -168 80 -147 243 -232 443 -232
279 0 520 125 610 316 31 65 33 76 32 174 0 84 -5 116 -22 160 -43 107 -137
204 -224 232 -21 6 -38 13 -38 15 0 2 19 27 41 56 140 175 129 386 -27 505
-107 83 -251 114 -404 87z m235 -59 c99 -45 152 -128 175 -273 7 -38 9 -93 5
-123 -8 -64 -47 -158 -70 -167 -34 -12 -263 50 -358 99 -72 36 -143 107 -157
156 -24 88 -7 187 42 247 75 91 238 118 363 61z m-227 -801 c100 -30 201 -63
225 -73 124 -56 177 -135 177 -262 0 -66 -4 -86 -31 -138 -55 -112 -145 -163
-298 -170 -119 -5 -190 18 -261 84 -149 139 -176 430 -54 573 20 22 41 41 47
41 7 0 94 -25 195 -55z" style="fill:#940040"/>
</g>
</svg>
